<svg xmlns="http://www.w3.org/2000/svg" width="32" height="32" viewBox="0 0 32 32">
  <path id="notepad" fill="context-fill" d="M 37,255 H 15 c -1.656854,0 -3,-1.34315 -3,-3 v -23 c 0,-1.65685 1.343146,-3 3,-3 h 2.05 c -0.587418,-2.89285 5.487418,-2.89285 4.9,0 h 8.1 c -0.587418,-2.89285 5.487418,-2.89285 4.9,0 H 37 c 1.656854,0 3,1.34315 3,3 v 23 c 0,1.65685 -1.343146,3 -3,3 z M 35,231 H 17 c -1.333333,0 -1.333333,4 0,4 h 18 c 1.333333,0 1.333333,-4 0,-4 z m 0,8 H 17 c -1.333333,0 -1.333333,4 0,4 h 18 c 1.333333,0 1.333333,-4 0,-4 z m 0,8 H 17 c -1.333333,0 -1.333333,4 0,4 h 18 c 1.333333,0 1.333333,-4 0,-4 z" transform="translate(-10 -223)"/>
</svg>
