<?xml version="1.0" encoding="utf-8"?>
<!-- Generator: Adobe Illustrator 18.0.0, SVG Export Plug-In . SVG Version: 6.00 Build 0)  -->
<!DOCTYPE svg PUBLIC "-//W3C//DTD SVG 1.1//EN" "http://www.w3.org/Graphics/SVG/1.1/DTD/svg11.dtd">
<svg version="1.1" id="Layer_1" xmlns="http://www.w3.org/2000/svg" xmlns:xlink="http://www.w3.org/1999/xlink" x="0px" y="0px"
	 viewBox="0 0 16 16" enable-background="new 0 0 16 16" xml:space="preserve">
<path d="M9.1,8l3.5-3.5c0.3-0.3,0.3-0.8,0-1.1c-0.3-0.3-0.8-0.3-1,0L8,6.9L4.5,3.5c-0.3-0.3-0.8-0.3-1.1,0c-0.3,0.3-0.3,0.7,0,1
	L6.9,8l-3.5,3.5c-0.3,0.3-0.3,0.8,0,1.1c0.3,0.3,0.8,0.3,1.1,0c0,0,0,0,0,0L8,9.1l3.5,3.5c0.3,0.3,0.8,0.3,1.1,0
	c0.3-0.3,0.3-0.8,0-1L9.1,8z"/>
</svg>
