<?xml version="1.0" encoding="utf-8"?>
<!-- Generator: Adobe Illustrator 16.0.0, SVG Export Plug-In . SVG Version: 6.00 Build 0)  -->
<!DOCTYPE svg PUBLIC "-//W3C//DTD SVG 1.1//EN" "http://www.w3.org/Graphics/SVG/1.1/DTD/svg11.dtd">
<svg version="1.1" id="Layer_1" xmlns="http://www.w3.org/2000/svg" xmlns:xlink="http://www.w3.org/1999/xlink" x="0px" y="0px"
	 width="16px" height="16px" viewBox="0 0 16 16" enable-background="new 0 0 16 16" xml:space="preserve">
<path fill="#4E92DD" d="M14,1c-0.553,0-1,0.448-1,1v1.146c-2.652-2.773-7.05-2.872-9.824-0.22C2.217,3.844,1.541,5.017,1.227,6.307
	C1.081,6.84,1.395,7.39,1.927,7.536c0.533,0.146,1.083-0.167,1.229-0.7c0.004-0.015,0.008-0.03,0.011-0.045
	C3.715,4.566,5.709,3.002,8,3c1.565-0.002,3.038,0.74,3.967,2H10C9.447,5,9,5.448,9,6s0.447,1,1,1h4c0.553,0,1-0.448,1-1V2
	C15,1.448,14.553,1,14,1z M14.046,8.481c-0.536-0.134-1.079,0.192-1.213,0.728l0,0C12.285,11.434,10.291,12.998,8,13
	c-1.565,0.002-3.038-0.74-3.967-2H6c0.552,0,1-0.447,1-1S6.552,9,6,9H2c-0.552,0-1,0.447-1,1v4c0,0.553,0.448,1,1,1s1-0.447,1-1
	v-1.146c2.652,2.773,7.051,2.872,9.824,0.221c0.959-0.918,1.635-2.092,1.949-3.381C14.906,9.158,14.581,8.615,14.046,8.481z"/>
</svg>
