<?xml version="1.0" encoding="utf-8"?>
<svg version="1.1" id="Layer_1" xmlns="http://www.w3.org/2000/svg" xmlns:xlink="http://www.w3.org/1999/xlink" x="0px" y="0px"
	 width="20px" height="20px" viewBox="0 0 20 20" enable-background="new 0 0 20 20" xml:space="preserve">
<path d="M10.133,8.866C7.241,8.62,6.606,8.301,6.606,7.106c0-0.831,1.505-1.76,3.519-1.76c1.842,0,3.245,0.797,3.482,1.536
	c0.229,0.605,0.907,0.911,1.512,0.681c0.566-0.214,0.876-0.822,0.718-1.405C15.234,4.297,12.886,3,10.125,3
	C6.841,3,4.259,4.804,4.259,7.106C4.23,7.869,4.435,8.624,4.846,9.268L10.133,8.866z"/>
<path d="M10.106,11.212c2.9,0.243,3.537,0.562,3.537,1.759c0,0.831-1.505,1.761-3.519,1.761c-1.843,0-3.244-0.799-3.483-1.536
	c-0.169-0.625-0.814-0.994-1.439-0.825c-0.625,0.172-0.994,0.815-0.824,1.441c0.01,0.036,0.021,0.071,0.035,0.108
	c0.602,1.86,2.95,3.157,5.712,3.157c3.284,0,5.865-1.805,5.865-4.106c0.03-0.763-0.175-1.518-0.586-2.161L10.106,11.212z"/>
<g>
	<line fill="#BAAEAE" stroke="#FFFFFF" stroke-width="3.8" stroke-miterlimit="10" x1="17.772" y1="10.007" x2="2.478" y2="10.07"/>
	<line fill="#BAAEAE" stroke="#000000" stroke-width="2" stroke-miterlimit="10" x1="17.772" y1="10.007" x2="2.478" y2="10.07"/>
</g>
</svg>
